<?xml version="1.0" encoding="UTF-8" standalone="no"?>
<svg
   viewBox="0 0 512 512"
   width="100%"
   height="100%"
   version="1.1"
   id="svg1"
   sodipodi:docname="logo.svg"
   xml:space="preserve"
   inkscape:version="1.4 (86a8ad7, 2024-10-11)"
   xmlns:inkscape="http://www.inkscape.org/namespaces/inkscape"
   xmlns:sodipodi="http://sodipodi.sourceforge.net/DTD/sodipodi-0.dtd"
   xmlns="http://www.w3.org/2000/svg"
   xmlns:svg="http://www.w3.org/2000/svg"><defs
     id="defs1" /><sodipodi:namedview
     id="namedview1"
     pagecolor="#505050"
     bordercolor="#eeeeee"
     borderopacity="1"
     inkscape:showpageshadow="0"
     inkscape:pageopacity="0"
     inkscape:pagecheckerboard="0"
     inkscape:deskcolor="#505050"
     inkscape:zoom="0.39404297"
     inkscape:cx="100.24287"
     inkscape:cy="414.92937"
     inkscape:window-width="1920"
     inkscape:window-height="1009"
     inkscape:window-x="1592"
     inkscape:window-y="-8"
     inkscape:window-maximized="1"
     inkscape:current-layer="svg1" /><path
     id="rect3"
     style="fill:#bc9753;stroke-width:7.42677;fill-opacity:1"
     d="M 128.30859 57.203125 C 106.90007 57.977215 86.424255 67.307301 72.791016 84.978516 C 67.680278 91.602986 66.41568 92.354829 40.546875 104.14648 C 25.737869 110.89679 13.365436 116.83388 13.052734 117.33984 C 12.740033 117.8458 25.395364 122.42819 41.175781 127.52344 C 68.288532 136.27774 70.078997 137.05864 73.724609 141.69141 C 77.982543 147.10231 82.359456 155.25835 85.414062 163.47461 C 86.864352 167.37559 87.692382 177.56419 88.455078 200.89062 C 89.624105 236.64434 91.464191 249.65392 98.195312 269.78906 C 107.3368 297.13443 120.17615 317.70859 141.37695 338.98633 C 170.76154 368.47757 205.37802 385.50343 246.05664 390.46875 C 252.78465 391.28999 280.26572 391.9116 310.16797 391.91992 L 362.50195 391.93359 L 383.43555 414.28711 C 419.42049 452.71089 425.56947 457.56729 444.52539 462.5332 C 458.02081 466.06862 470.73118 465.85129 487.6875 461.79688 C 495.47381 459.93509 501.84375 458.13411 501.84375 457.79492 C 501.84375 457.21726 477.36532 430.85804 431.54883 382.09961 L 411.87891 361.16602 L 420.55273 360.26953 C 425.32425 359.77614 433.82939 358.98557 439.45312 358.51367 L 449.67969 357.65625 L 442.72461 350.24414 C 438.89989 346.16778 419.28566 325.19936 399.13672 303.64648 C 260.04374 154.86175 198.1422 89.073469 189.42188 80.761719 C 172.05792 64.211304 149.71711 56.429035 128.30859 57.203125 z M 132.08984 67.882812 C 139.12102 67.859946 146.1673 68.954962 152.90039 71.271484 C 171.48248 77.664654 176.21671 81.662486 217.70117 125.98828 C 233.65602 143.03591 233.79027 143.23043 230.13086 144.0625 C 215.66475 147.35177 209.64221 149.34914 201.80664 153.45703 C 181.92847 163.87841 168.50103 181.5825 162.85352 204.81641 C 160.45859 214.66919 160.77507 237.39846 163.46094 248.50586 C 166.26629 260.10733 174.62009 277.90481 181.60352 287.1543 C 194.87636 304.73404 217.22357 322.12406 240.64062 333.09766 C 262.27913 343.2378 297.66853 353.41083 320.66016 356.09961 C 327.97231 356.95474 329.02861 357.53713 336.79688 364.97852 C 341.36908 369.35835 346.26615 374.56015 347.67969 376.53906 L 350.25 380.13672 L 298.80859 380.01953 C 260.28855 379.93163 244.73606 379.43131 236.89844 378.02539 C 172.1834 366.41677 119.91232 317.20773 104.33008 253.22461 C 100.68457 238.25553 98.869169 219.0649 98.841797 195.19141 C 98.827857 183.03416 98.091986 171.94637 96.9375 166.49805 C 94.363604 154.35117 87.743429 141.47837 79.902344 133.37305 C 73.743244 127.00641 72.391934 126.30467 57.324219 121.64844 C 48.50906 118.92438 41.296875 116.33227 41.296875 115.88867 C 41.296875 115.44508 48.715265 111.86894 57.783203 107.94141 C 72.190196 101.70142 74.742779 100.11891 78.009766 95.408203 C 90.031763 78.073558 110.99632 67.951412 132.08984 67.882812 z M 243.43945 153.65625 L 302.31641 216.05859 C 334.69862 250.38005 361.38904 278.96595 361.62891 279.58203 C 362.22536 281.11396 362.79522 281.253 336.33398 273.37695 C 323.38109 269.52159 292.88784 260.65166 268.57031 253.66602 L 224.35547 240.96484 L 204.59375 214.05859 C 193.72404 199.26029 184.56347 186.16055 184.23828 184.94727 C 183.47308 182.09224 193.86257 170.93145 202.36328 165.47656 C 210.01439 160.56685 224.7187 155.71929 235.58984 154.52148 L 243.43945 153.65625 z M 177.35156 195.65625 C 177.82653 195.65625 186.9404 207.7109 197.60547 222.44336 L 216.99609 249.23047 L 255.73242 273.06836 C 277.03667 286.17936 303.29772 302.29357 314.0918 308.87891 C 344.8873 327.66689 379.45789 348.97419 380.05664 349.53516 C 381.29053 350.6912 378.7336 350.72945 362.50195 349.80469 C 316.51783 347.18484 272.28641 336.75168 241.45898 321.25195 C 195.70648 298.24804 172.13281 265.52685 172.13281 225.02344 C 172.13281 214.35823 175.45686 195.65625 177.35156 195.65625 z M 261.97266 263.77148 C 261.3713 263.17298 287.21842 270.23293 319.41211 279.46094 C 351.6058 288.68896 378.67559 297.01294 379.56641 297.95703 C 404.3142 324.18427 425.95898 347.92836 425.95898 348.85156 C 425.95898 349.50796 420.20673 350.04492 413.17773 350.04492 C 401.93722 350.04492 399.84891 349.67578 395.8418 346.97656 C 393.33604 345.28867 381.86524 338.10117 370.35156 331.00586 C 282.96165 277.1518 262.93207 264.72635 261.97266 263.77148 z M 347.61914 359.95117 C 347.8889 359.7027 359.47951 360.16808 373.375 360.98633 L 398.63867 362.47461 L 440.42773 406.89258 C 463.41198 431.32307 482.21875 451.70367 482.21875 452.18164 C 482.21875 454.93582 457.24254 455.34816 447.79102 452.75 C 437.53866 449.93171 427.524 444.17359 419.4375 436.44922 C 408.72461 426.21606 347.02612 360.4974 347.61914 359.95117 z "
     inkscape:export-filename="rect3.png"
     inkscape:export-xdpi="96"
     inkscape:export-ydpi="96" /><!-- A minimalist elegant bird silhouette --></svg>
